<mxfile host="www.draw.io" modified="2020-02-25T06:00:02.500Z" agent="Mozilla/5.0 (Windows NT 10.0; WOW64) AppleWebKit/537.36 (KHTML, like Gecko) Chrome/80.0.3987.116 Safari/537.36" etag="SXW3ckP08-uki0K1DMmg" version="12.7.4" type="github">
  <diagram id="IyF2bX7JQFsOK86trFZc" name="Page-1">
    <mxGraphModel dx="1088" dy="568" grid="1" gridSize="10" guides="1" tooltips="1" connect="1" arrows="1" fold="1" page="1" pageScale="1" pageWidth="850" pageHeight="1100" math="0" shadow="0">
      <root>
        <mxCell id="0" />
        <mxCell id="1" parent="0" />
        <mxCell id="pK0emq5RaAQ_nsQSTdAG-5" value="" style="edgeStyle=orthogonalEdgeStyle;rounded=0;orthogonalLoop=1;jettySize=auto;html=1;" edge="1" parent="1" source="pK0emq5RaAQ_nsQSTdAG-2" target="pK0emq5RaAQ_nsQSTdAG-4">
          <mxGeometry relative="1" as="geometry" />
        </mxCell>
        <mxCell id="pK0emq5RaAQ_nsQSTdAG-11" style="edgeStyle=orthogonalEdgeStyle;rounded=0;orthogonalLoop=1;jettySize=auto;html=1;exitX=1;exitY=0.5;exitDx=0;exitDy=0;entryX=0;entryY=0.5;entryDx=0;entryDy=0;" edge="1" parent="1" source="pK0emq5RaAQ_nsQSTdAG-2" target="pK0emq5RaAQ_nsQSTdAG-10">
          <mxGeometry relative="1" as="geometry" />
        </mxCell>
        <mxCell id="pK0emq5RaAQ_nsQSTdAG-2" value="patient visit&lt;br&gt;PV1&lt;br&gt;PV1-19" style="rounded=0;whiteSpace=wrap;html=1;" vertex="1" parent="1">
          <mxGeometry x="100" y="190" width="120" height="60" as="geometry" />
        </mxCell>
        <mxCell id="pK0emq5RaAQ_nsQSTdAG-7" value="" style="edgeStyle=orthogonalEdgeStyle;rounded=0;orthogonalLoop=1;jettySize=auto;html=1;" edge="1" parent="1" source="pK0emq5RaAQ_nsQSTdAG-4" target="pK0emq5RaAQ_nsQSTdAG-6">
          <mxGeometry relative="1" as="geometry" />
        </mxCell>
        <mxCell id="pK0emq5RaAQ_nsQSTdAG-13" style="edgeStyle=orthogonalEdgeStyle;rounded=0;orthogonalLoop=1;jettySize=auto;html=1;exitX=1;exitY=0.5;exitDx=0;exitDy=0;entryX=0;entryY=0.5;entryDx=0;entryDy=0;" edge="1" parent="1" source="pK0emq5RaAQ_nsQSTdAG-4" target="pK0emq5RaAQ_nsQSTdAG-12">
          <mxGeometry relative="1" as="geometry" />
        </mxCell>
        <mxCell id="pK0emq5RaAQ_nsQSTdAG-4" value="order&lt;br&gt;ORC&lt;br&gt;ORC-3" style="rounded=0;whiteSpace=wrap;html=1;" vertex="1" parent="1">
          <mxGeometry x="300" y="190" width="120" height="60" as="geometry" />
        </mxCell>
        <mxCell id="pK0emq5RaAQ_nsQSTdAG-6" value="request&lt;br&gt;OBR&lt;br&gt;OBR-2&lt;br&gt;OBR-18" style="rounded=0;whiteSpace=wrap;html=1;" vertex="1" parent="1">
          <mxGeometry x="500" y="190" width="120" height="60" as="geometry" />
        </mxCell>
        <mxCell id="pK0emq5RaAQ_nsQSTdAG-10" value="order&lt;br&gt;ORC&lt;br&gt;ORC-3" style="rounded=0;whiteSpace=wrap;html=1;" vertex="1" parent="1">
          <mxGeometry x="300" y="280" width="120" height="60" as="geometry" />
        </mxCell>
        <mxCell id="pK0emq5RaAQ_nsQSTdAG-12" value="request&lt;br&gt;OBR&lt;br&gt;OBR-2&lt;br&gt;OBR-18" style="rounded=0;whiteSpace=wrap;html=1;" vertex="1" parent="1">
          <mxGeometry x="500" y="280" width="120" height="60" as="geometry" />
        </mxCell>
        <mxCell id="pK0emq5RaAQ_nsQSTdAG-28" style="edgeStyle=orthogonalEdgeStyle;rounded=0;orthogonalLoop=1;jettySize=auto;html=1;exitX=1;exitY=0.5;exitDx=0;exitDy=0;entryX=0;entryY=0.5;entryDx=0;entryDy=0;" edge="1" parent="1" source="pK0emq5RaAQ_nsQSTdAG-16" target="pK0emq5RaAQ_nsQSTdAG-20">
          <mxGeometry relative="1" as="geometry" />
        </mxCell>
        <mxCell id="pK0emq5RaAQ_nsQSTdAG-16" value="patient visit&lt;br&gt;PV1&lt;br&gt;PV1-19" style="rounded=0;whiteSpace=wrap;html=1;" vertex="1" parent="1">
          <mxGeometry x="100" y="380" width="120" height="60" as="geometry" />
        </mxCell>
        <mxCell id="pK0emq5RaAQ_nsQSTdAG-30" style="edgeStyle=orthogonalEdgeStyle;rounded=0;orthogonalLoop=1;jettySize=auto;html=1;exitX=1;exitY=0.5;exitDx=0;exitDy=0;entryX=0;entryY=0.5;entryDx=0;entryDy=0;" edge="1" parent="1" source="pK0emq5RaAQ_nsQSTdAG-19" target="pK0emq5RaAQ_nsQSTdAG-20">
          <mxGeometry relative="1" as="geometry" />
        </mxCell>
        <mxCell id="pK0emq5RaAQ_nsQSTdAG-31" style="edgeStyle=orthogonalEdgeStyle;rounded=0;orthogonalLoop=1;jettySize=auto;html=1;exitX=1;exitY=0.5;exitDx=0;exitDy=0;entryX=0;entryY=0.5;entryDx=0;entryDy=0;" edge="1" parent="1" source="pK0emq5RaAQ_nsQSTdAG-19" target="pK0emq5RaAQ_nsQSTdAG-22">
          <mxGeometry relative="1" as="geometry" />
        </mxCell>
        <mxCell id="pK0emq5RaAQ_nsQSTdAG-19" value="order&lt;br&gt;ORC&lt;br&gt;ORC-3" style="rounded=0;whiteSpace=wrap;html=1;" vertex="1" parent="1">
          <mxGeometry x="300" y="440" width="120" height="60" as="geometry" />
        </mxCell>
        <mxCell id="pK0emq5RaAQ_nsQSTdAG-20" value="request&lt;br&gt;OBR&lt;br&gt;OBR-2&lt;br&gt;OBR-18" style="rounded=0;whiteSpace=wrap;html=1;" vertex="1" parent="1">
          <mxGeometry x="500" y="380" width="120" height="60" as="geometry" />
        </mxCell>
        <mxCell id="pK0emq5RaAQ_nsQSTdAG-22" value="request&lt;br&gt;OBR&lt;br&gt;OBR-2&lt;br&gt;OBR-18" style="rounded=0;whiteSpace=wrap;html=1;" vertex="1" parent="1">
          <mxGeometry x="500" y="500" width="120" height="60" as="geometry" />
        </mxCell>
        <mxCell id="pK0emq5RaAQ_nsQSTdAG-29" style="edgeStyle=orthogonalEdgeStyle;rounded=0;orthogonalLoop=1;jettySize=auto;html=1;exitX=1;exitY=0.5;exitDx=0;exitDy=0;entryX=0;entryY=0.5;entryDx=0;entryDy=0;" edge="1" parent="1" source="pK0emq5RaAQ_nsQSTdAG-23" target="pK0emq5RaAQ_nsQSTdAG-22">
          <mxGeometry relative="1" as="geometry" />
        </mxCell>
        <mxCell id="pK0emq5RaAQ_nsQSTdAG-23" value="patient visit&lt;br&gt;PV1&lt;br&gt;PV1-19" style="rounded=0;whiteSpace=wrap;html=1;" vertex="1" parent="1">
          <mxGeometry x="100" y="500" width="120" height="60" as="geometry" />
        </mxCell>
      </root>
    </mxGraphModel>
  </diagram>
</mxfile>
